<?xml version="1.0" encoding="utf-8"?>
<!DOCTYPE svg PUBLIC "-//W3C//DTD SVG 1.1//EN" "http://www.w3.org/Graphics/SVG/1.1/DTD/svg11.dtd">
<svg version="1.1" xmlns="http://www.w3.org/2000/svg" xmlns:xlink="http://www.w3.org/1999/xlink" x="0px" y="0px" viewBox="0 0 1000 1000" enable-background="new 0 0 1000 1000" xml:space="preserve">
<metadata> pePR </metadata>
<g><g><g><path style="fill:#03adff;" d="M929.4,234.6c27-82.2-21-175-88.1-226.7c-36-27.8-73.1,32.1-37.6,59.6c38,29.3,69.2,82.8,61.6,131.4C887.9,207.5,909.5,219.6,929.4,234.6z"/><polygon points="788.9,201.7 788.9,201.7 788.9,219.3 "/><path style="fill:#03adff;" d="M913.9,267.4c-18.4-14.9-39-27.2-60.8-35.6c-20.8-8-42.6-12.5-64.3-12.5c-60,0-119.4,34.4-155.8,124.4C527.3,605.5,246.6,810,185.6,854.7C137.4,890-109.1,999.2,81,999.2c50.4,0,131.5-7.7,255.1-26.4C926,883.3,982.9,448,982.9,448C1005.8,384.8,970.8,313.4,913.9,267.4z M856.2,611c-22.9,39.2-83.7,3.8-60.8-35.5c32.6-55.9,122.8-162,39-209.2c-39.5-22.3-4.1-83.1,35.5-60.8C1003,380.4,911.5,516.1,856.2,611z"/></g></g><g></g><g></g><g></g><g></g><g></g><g></g><g></g><g></g><g></g><g></g><g></g><g></g><g></g><g></g><g></g></g>
</svg>