<?xml version="1.0"?>
<svg xmlns="http://www.w3.org/2000/svg" viewBox="0 0 64 64" width="512" height="512"><g id="outline"><path d="M59,53H56V11.414l1.707-1.707a1,1,0,0,0,0-1.414l-3-3a1,1,0,0,0-1.414,0l-9,9a1,1,0,0,0,0,1.414l3,3a1,1,0,0,0,1.414,0L50,17.414v31.3c-.831-.735-1.943-1.674-3.282-2.711H47a1,1,0,0,0,1-1V32a1,1,0,0,0-.143-.515L42,21.723V12a3,3,0,0,0-6,0V23a1,1,0,0,0,.143.515L42,33.277V40H37.319c-.735-.374-1.339-.664-1.913-.914C28.565,36.044,21.168,34,17,34a8.994,8.994,0,0,0-5.645,16H9a1,1,0,0,0-1,1v2H5a3,3,0,0,0,0,6H7a3,3,0,0,0,3-3H54a3,3,0,0,0,3,3h2a3,3,0,0,0,0-6ZM8,56a1,1,0,0,1-1,1H5a1,1,0,0,1,0-2H8Zm40.434-6H22.645a9.025,9.025,0,0,0,2.83-4h17.88C45.467,47.5,47.223,48.943,48.434,50ZM38,12a1,1,0,0,1,2,0v5H38Zm0,10.723V19h2v3a1,1,0,0,0,.143.515L46,32.277V40H44V33a1,1,0,0,0-.143-.515ZM46,42v2H25.941a8.5,8.5,0,0,0,0-2ZM32.442,40H25.475a9.01,9.01,0,0,0-1.712-2.92A69.961,69.961,0,0,1,32.442,40ZM10,43a7,7,0,1,1,7,7A7.009,7.009,0,0,1,10,43ZM54,54H10V52H54Zm0-4H52V15.414l2-2ZM48,16.586,46.414,15,54,7.414,55.586,9ZM59,57H57a1,1,0,0,1-1-1V55h3a1,1,0,0,1,0,2Z"/><path d="M17,48a5,5,0,1,0-5-5A5.006,5.006,0,0,0,17,48Zm0-8a3,3,0,1,1-3,3A3,3,0,0,1,17,40Z"/></g></svg>
