<?xml version="1.0" encoding="iso-8859-1"?>
<!-- Generator: Adobe Illustrator 19.0.0, SVG Export Plug-In . SVG Version: 6.00 Build 0)  -->
<svg version="1.1" id="Capa_1" xmlns="http://www.w3.org/2000/svg" xmlns:xlink="http://www.w3.org/1999/xlink" x="0px" y="0px"
	 viewBox="0 0 480 480" style="enable-background:new 0 0 480 480;" xml:space="preserve">
<g>
	<g>
		<path d="M462.856,223.714c-2.214-3.776-7.051-5.072-10.856-2.909v0l-61.04,35.24c-0.33-0.719-0.77-1.383-1.304-1.968l-56-56
			c-2.976-2.976-7.75-3.137-10.92-0.368l-64,56c-3.342,2.89-3.709,7.942-0.82,11.284c2.89,3.342,7.942,3.709,11.284,0.82
			c0.021-0.018,0.042-0.037,0.064-0.056l58.4-51.08l49.408,49.408L232,347.822V219.734h1.072
			c13.326-0.687,23.571-12.046,22.885-25.371c-0.637-12.365-10.519-22.248-22.885-22.885H232v-23.744c0-4.418-3.582-8-8-8
			s-8,3.582-8,8v23.744h-31.712L144,127.958v-4.224c0-4.418-3.582-8-8-8H88c-4.418,0-8,3.582-8,8v95.792
			c-0.074,51.627-16.901,101.835-47.952,143.08c-0.204,0.273-0.391,0.559-0.56,0.856c-8.777,15.385-3.558,34.968,11.712,43.944
			c4.855,2.837,10.377,4.331,16,4.328c2.799-0.001,5.585-0.37,8.288-1.096c8.052-2.092,14.938-7.306,19.136-14.488l13.064-19.04
			c16.381-23.936,28.506-50.522,35.84-78.584L152,306.854v24.88c0,13.255,10.745,24,24,24s24-10.745,24-24v-54.008
			c0-2.858-1.525-5.499-4-6.928l-52.248-30.096c0.064-2.28,0.256-4.544,0.256-6.824V191.83l23.472,25.344
			c1.513,1.632,3.638,2.56,5.864,2.56H216V355.35c0.051,0.519,0.155,1.031,0.312,1.528L64,444.806
			c-3.841,2.183-5.185,7.067-3.002,10.908c2.183,3.841,7.067,5.185,10.908,3.002c0.031-0.018,0.062-0.036,0.093-0.054l388-224
			C463.812,232.427,465.09,227.526,462.856,223.714z M86.472,368.07l-13.416,19.584c-4.305,7.636-13.985,10.337-21.621,6.032
			c-0.065-0.037-0.13-0.074-0.195-0.112c-7.534-4.449-10.22-14.047-6.088-21.76c29.57-39.534,47.006-86.813,50.184-136.08h32.592
			C127.665,283.001,113.223,329.101,86.472,368.07z M128,219.734H96v-88h32V219.734z M184,282.35v49.384c0,4.418-3.582,8-8,8
			s-8-3.582-8-8v-29.816c-0.003-3.018-1.705-5.778-4.4-7.136l-24.4-12.312c1.536-7.896,2.72-15.872,3.496-23.928L184,282.35z
			 M176.8,203.702L144,168.278v-16.8l30.928,33.4c1.514,1.637,3.642,2.568,5.872,2.568h40.64c1.638,0.683,3.482,0.683,5.12,0h6.512
			c4.489,0.72,7.544,4.943,6.824,9.432c-0.563,3.509-3.315,6.26-6.824,6.824H176.8z"/>
	</g>
</g>
<g>
	<g>
		<path d="M176,51.99h-16.8c-4.56-21.616-25.779-35.442-47.395-30.883c-21.616,4.56-35.442,25.779-30.883,47.395
			c3.898,18.48,20.191,31.715,39.077,31.744c19.07-0.074,35.456-13.557,39.2-32.256H176c4.418,0,8-3.582,8-8
			S180.418,51.99,176,51.99z M120,84.246c-10.21-0.07-19.258-6.592-22.552-16.256h45.104C139.258,77.654,130.21,84.176,120,84.246z
			 M97.448,51.99c3.294-9.664,12.342-16.186,22.552-16.256c10.21,0.07,19.258,6.592,22.552,16.256H97.448z"/>
	</g>
</g>
<g>
	<g>
		<path d="M32,75.734c-17.673,0-32,14.327-32,32v72c0.04,30.911,25.089,55.96,56,56c4.418,0,8-3.582,8-8v-120
			C64,90.061,49.673,75.734,32,75.734z M48,218.934c-18.613-3.825-31.979-20.198-32-39.2v-72c0-8.837,7.163-16,16-16s16,7.163,16,16
			V218.934z"/>
	</g>
</g>
<g>
	<g>
		<path d="M400,139.734c-17.673,0-32,14.327-32,32s14.327,32,32,32c17.673,0,32-14.327,32-32S417.673,139.734,400,139.734z
			 M400,187.734c-8.837,0-16-7.163-16-16s7.163-16,16-16s16,7.163,16,16S408.837,187.734,400,187.734z"/>
	</g>
</g>
<g>
	<g>
		<path d="M441.189,99.057c-0.015-0.009-0.03-0.018-0.045-0.027c-3.8-2.254-8.708-1.002-10.962,2.798
			c-0.002,0.003-0.004,0.006-0.006,0.01l-8.216,13.896c-2.253,3.802-0.998,8.711,2.804,10.964c3.802,2.253,8.711,0.998,10.964-2.804
			l8.216-13.864C446.213,106.239,444.98,101.326,441.189,99.057z"/>
	</g>
</g>
<g>
	<g>
		<path d="M470.35,130.29c-2.176-3.685-6.867-5.006-10.646-2.996l-14.24,8c-3.854,2.16-5.228,7.036-3.067,10.89
			c0.001,0.002,0.002,0.004,0.003,0.006c2.164,3.849,7.037,5.217,10.888,3.056l14.24-8C471.333,139,472.596,134.094,470.35,130.29z"
			/>
	</g>
</g>
<g>
	<g>
		<path d="M472,163.734h-16.44c-4.418,0-8,3.582-8,8s3.582,8,8,8H472c4.418,0,8-3.582,8-8S476.418,163.734,472,163.734z"/>
	</g>
</g>
<g>
	<g>
		<path d="M344,163.734h-16.44c-4.418,0-8,3.582-8,8s3.582,8,8,8H344c4.418,0,8-3.582,8-8S348.418,163.734,344,163.734z"/>
	</g>
</g>
<g>
	<g>
		<path d="M354.16,133.334l-14.24-8c-3.853-2.165-8.731-0.797-10.896,3.056c-2.165,3.853-0.797,8.731,3.056,10.896l14.232,8
			c3.853,2.167,8.733,0.801,10.9-3.052S358.013,135.501,354.16,133.334z"/>
	</g>
</g>
<g>
	<g>
		<path d="M378.176,115.734l-8.216-13.896c-2.251-3.802-7.158-5.059-10.96-2.808c-3.802,2.251-5.059,7.158-2.808,10.96l8.224,13.864
			c2.445,3.68,7.411,4.681,11.091,2.236C378.912,123.827,380.063,119.361,378.176,115.734z"/>
	</g>
</g>
<g>
	<g>
		<path d="M400.072,88.27c-4.418,0-8,3.582-8,8v16c0,4.418,3.582,8,8,8s8-3.582,8-8v-16C408.072,91.852,404.49,88.27,400.072,88.27z
			"/>
	</g>
</g>
<g>
</g>
<g>
</g>
<g>
</g>
<g>
</g>
<g>
</g>
<g>
</g>
<g>
</g>
<g>
</g>
<g>
</g>
<g>
</g>
<g>
</g>
<g>
</g>
<g>
</g>
<g>
</g>
<g>
</g>
</svg>
