<svg id="Layer_1" enable-background="new 0 0 512.001 512.001" height="512" viewBox="0 0 512.001 512.001" width="512" xmlns="http://www.w3.org/2000/svg"><g><g><path d="m502.001 386.997c-6.724 0-9.906-2.252-14.722-5.662-5.877-4.161-13.191-9.338-26.278-9.338-1.997 0-3.846.133-5.59.352 4.167-8.59 7.593-17.857 10.248-27.765.805-3.003.167-6.209-1.726-8.676s-4.825-3.913-7.934-3.913h-108.896l-9.674-30.394c3.497-2.648 6.389-6.063 8.469-10.072 3.679-7.093 4.376-15.194 1.962-22.812-3.927-12.391-15.222-20.437-27.538-20.854l-16.412-51.56c12.988-9.843 15.737-28.382 6.068-41.573-4.73-6.453-11.69-10.678-19.598-11.896-1.2-.185-2.4-.289-3.595-.33l-10.975-34.477 13.764-11.043c8.991-7.212 11.551-17.447 6.851-27.378l-27.296-57.668c-4.421-9.34-14.311-13.99-23.521-11.061l-26.148 8.323c-9.209 2.931-14.592 12.445-12.799 22.622l11.062 62.837c1.906 10.821 9.912 17.692 21.416 18.38l17.616 1.054 10.972 34.469-31.663 23.253c-5.904-2.458-12.373-3.822-19.157-3.822-27.57 0-50 22.43-50 50 0 6.939 1.423 13.551 3.989 19.563-14.169 23.206-26.213 61.479-25.571 94.438h-89.325c-3.109 0-6.041 1.446-7.934 3.913-1.893 2.466-2.53 5.673-1.726 8.676 2.654 9.906 6.097 19.175 10.297 27.771-1.758-.223-3.622-.358-5.638-.358-13.087 0-20.401 5.178-26.278 9.338-4.816 3.409-7.998 5.662-14.722 5.662-5.523 0-10 4.477-10 10v104.997c0 5.523 4.477 10 10 10h492.001c5.523 0 10-4.477 10-10v-104.996c.001-5.523-4.476-10-9.999-10zm-59.623-35.001c-4.918 13.442-11.56 24.944-20.062 34.901-.726.065-1.493.1-2.315.1-6.725 0-9.906-2.252-14.722-5.662-5.877-4.161-13.191-9.338-26.278-9.338-7.64 0-13.304 1.768-17.871 4.065l-7.66-24.066zm-203.124-40.17 5.631 4.579c.104.085.211.167.318.249 9.502 7.109 21.724 9.277 32.723 5.793l40.968-13.134 7.22 22.682h-86.86zm89.541-37.066c.8 2.525.569 5.21-.651 7.561-1.219 2.351-3.281 4.086-5.838 4.896l-50.453 16.174c-4.363 1.384-8.676.503-11.968-1.115l17.514-21.54 38.948-12.433c5.212-1.651 10.796 1.246 12.448 6.457zm-62.231-51.014 20.339-14.936 13.841 43.481-26.291 8.393-15.259-16.059c3.906-6.183 6.494-13.272 7.37-20.879zm27.284-57.19c3.245 4.427 2.284 10.668-2.15 13.918l-27.807 20.421c-2.328-6.376-5.925-12.142-10.474-17.008l26.518-19.474c2.144-1.572 4.776-2.213 7.4-1.81 2.628.404 4.941 1.808 6.513 3.953zm-53.516-73.48c-2.609-.156-2.686-.592-2.913-1.884l-11.062-62.837c-.023-.129-.034-.246-.038-.348l24.561-7.818c.056.086.115.188.171.307l27.296 57.668c.562 1.186.75 1.585-1.289 3.222l-7.75 6.218-2.114-6.641c-1.675-5.262-7.297-8.171-12.562-6.496-5.263 1.675-8.171 7.299-6.496 12.562l2.114 6.641zm-23.427 94.919c16.542 0 30 13.458 30 30s-13.458 30-30 30-30-13.458-30-30 13.458-30 30-30zm-33.083 67.445c8.823 7.804 20.406 12.556 33.084 12.556 10.56 0 20.359-3.299 28.44-8.909l12.87 13.545-14.114 17.358-8.537-6.942c-2.995-2.434-7.122-2.929-10.605-1.271-3.484 1.658-5.704 5.172-5.704 9.03v41.189h-53.913c-.528-25.13 7.905-55.753 18.479-76.556zm148.659 96.556 10.942 34.375c-1.567.406-3.322.626-5.422.626-6.724 0-9.906-2.252-14.722-5.662-5.877-4.161-13.191-9.338-26.278-9.338s-20.401 5.178-26.278 9.338c-4.816 3.409-7.998 5.662-14.722 5.662-6.725 0-9.906-2.252-14.722-5.662-5.877-4.161-13.191-9.338-26.278-9.338s-20.401 5.178-26.278 9.338c-4.816 3.409-7.998 5.662-14.722 5.662s-9.906-2.252-14.722-5.662c-5.877-4.161-13.191-9.338-26.278-9.338s-20.401 5.178-26.278 9.338c-4.816 3.409-7.998 5.662-14.722 5.662-.744 0-1.439-.032-2.104-.086-8.613-9.977-15.322-21.483-20.262-34.916h262.846zm-312.481 139.998v-25.923c7.709-1.676 12.858-5.328 17.211-8.422 4.787-3.402 7.949-5.65 14.623-5.65s9.836 2.248 14.623 5.65c5.86 4.166 13.152 9.35 26.21 9.35s20.351-5.184 26.21-9.35c4.787-3.402 7.95-5.65 14.623-5.65s9.836 2.248 14.623 5.65c5.86 4.166 13.153 9.35 26.21 9.35s20.351-5.184 26.21-9.348c4.001-2.844 6.892-4.898 11.664-5.48 5.482-.668 9.384-5.655 8.715-11.137-.668-5.482-5.649-9.383-11.137-8.715-9.803 1.196-15.916 5.54-20.828 9.031-4.788 3.403-7.95 5.65-14.625 5.65-6.673 0-9.836-2.248-14.623-5.65-5.86-4.166-13.153-9.35-26.21-9.35s-20.35 5.184-26.21 9.349c-4.787 3.403-7.95 5.651-14.624 5.651-6.673 0-9.835-2.248-14.623-5.65-5.86-4.166-13.153-9.35-26.21-9.35s-20.351 5.184-26.21 9.35c-2.036 1.447-3.78 2.683-5.624 3.628v-39.126c7.193-1.76 12.098-5.233 16.278-8.192 4.816-3.409 7.998-5.662 14.722-5.662s9.906 2.252 14.722 5.662c5.877 4.161 13.191 9.338 26.278 9.338s20.401-5.178 26.278-9.338c4.816-3.409 7.998-5.662 14.722-5.662 6.725 0 9.906 2.252 14.722 5.662 5.877 4.161 13.191 9.338 26.278 9.338s20.401-5.178 26.278-9.338c4.816-3.409 7.998-5.662 14.722-5.662s9.906 2.252 14.722 5.662c5.877 4.161 13.191 9.338 26.278 9.338s20.401-5.178 26.278-9.338c4.816-3.409 7.998-5.662 14.722-5.662 6.725 0 9.906 2.252 14.722 5.662 5.877 4.161 13.191 9.338 26.278 9.338s20.401-5.178 26.278-9.338c4.816-3.409 7.998-5.662 14.722-5.662s9.906 2.252 14.722 5.662c5.877 4.161 13.191 9.338 26.278 9.338s20.401-5.178 26.278-9.338c4.816-3.409 7.998-5.662 14.722-5.662s9.906 2.252 14.722 5.662c4.18 2.959 9.085 6.432 16.278 8.192v39.126c-1.844-.945-3.587-2.181-5.624-3.629-5.86-4.165-13.152-9.349-26.21-9.349s-20.351 5.184-26.21 9.35c-4.787 3.402-7.95 5.65-14.623 5.65s-9.836-2.248-14.623-5.65c-5.86-4.166-13.152-9.35-26.21-9.35s-20.351 5.184-26.21 9.35c-4.787 3.402-7.949 5.65-14.623 5.65s-9.837-2.248-14.625-5.65c-4.913-3.492-11.028-7.838-20.836-9.032-5.481-.666-10.468 3.236-11.135 8.718s3.236 10.468 8.718 11.135c4.773.581 7.666 2.636 11.667 5.48 5.86 4.165 13.153 9.349 26.211 9.349s20.351-5.184 26.21-9.35c4.787-3.402 7.949-5.65 14.623-5.65 6.673 0 9.836 2.248 14.623 5.65 5.86 4.166 13.152 9.35 26.21 9.35s20.351-5.184 26.21-9.35c4.787-3.402 7.95-5.65 14.623-5.65s9.836 2.248 14.623 5.65c4.353 3.094 9.502 6.746 17.211 8.422v25.923h-471.998z"/><path d="m256 446.999h-.007c-5.523 0-9.996 4.477-9.996 10s4.48 10 10.003 10 10-4.477 10-10-4.477-10-10-10z"/></g></g></svg>