<?xml version="1.0"?>
<svg xmlns="http://www.w3.org/2000/svg" id="Outline" viewBox="0 0 512 512" width="512" height="512"><path d="M496,303.956c0-.03,0-.06,0-.09-.05-17.077-9.6-29.066-28.384-35.63-14.9-5.206-33.853-6.692-53.919-8.265-12.258-.961-24.934-1.955-36.377-3.863-22.935-3.822-60.009-24.542-92.72-42.822q-3.773-2.108-7.466-4.169c-7.384-5.008-16.718-16.278-25.749-27.19-9.359-11.308-19.037-23-28.74-30.811-13.148-10.583-24.949-12.525-35.078-5.772-19.309,12.872-21.986,32.027-20.337,43.787-1.394,1.192-2.745,2.392-4.062,3.57C153.985,200.91,146.059,208,128,208c-23.831,0-38.143-25.109-44.553-40.076a20.8,20.8,0,0,0-39.372,12.938c7.956,32.637-1.98,94.214-3.7,104.3L17.14,323.884a8,8,0,0,0,1.2,9.773c16.634,16.633,44.773,27.473,83.638,32.218,30.656,3.742,60.549,2.771,74.915,2.308,3.14-.1,5.622-.183,7.1-.183,16.263,0,34.177,1.37,54.919,2.957C268.285,373.2,304.831,376,352,376c133.527,0,143.576-68.108,143.938-71.008A7.891,7.891,0,0,0,496,304h0C496,303.985,496,303.971,496,303.956Zm-299.56-145.3c8.632-5.756,24.292,11.52,38.051,27.977C220.528,180.11,208.713,176,200,176a45.43,45.43,0,0,0-16.914,3.067C183.916,172.808,187.06,164.908,196.438,158.656Zm265.176,172.3C446.124,344.205,414.533,360,352,360c-46.558,0-82.767-2.771-111.86-5-21.07-1.612-39.266-3-56.14-3-1.742,0-4.337.084-7.622.19-26.8.87-105.992,3.441-142.126-25.727L52.74,295.649c17.579-1.29,88.577-5.444,128.73,7.941C228.475,319.258,302.16,336,368,336c43.792,0,83.493-10.766,105.4-18.076A65.353,65.353,0,0,1,461.614,330.954Zm-286.182-45.7a214.805,214.805,0,0,0-21.414-3.958L184,251.313,196.687,264ZM250.784,305.9c-7.029-1.543-13.9-3.16-20.54-4.831L256,275.313,268.687,288ZM368,320c-32.271,0-66.529-4.162-98.44-10.245l16.1-16.1a8,8,0,0,0,0-11.314l-24-24a8,8,0,0,0-11.314,0l-37.968,37.968c-6.86-1.93-13.39-3.889-19.525-5.846l20.807-20.808a8,8,0,0,0,0-11.314l-24-24a8,8,0,0,0-11.314,0L133.506,279.18c-30.288-2.221-60.588-.9-75.969.086,3.266-21.475,9.516-71.7,2.083-102.193a4.8,4.8,0,0,1,9.119-2.85C87.288,217.533,113.83,224,128,224c24.17,0,36.18-10.742,45.83-19.373C181.718,197.572,187.947,192,200,192c3.992,0,9.67,1.595,16.432,4.254l-14.089,14.089,11.314,11.314,18.412-18.411c10.075,4.915,21.225,10.95,32.29,17.081l-14.016,14.016,11.314,11.314,17.231-17.231c10.652,5.951,21.388,11.931,31.883,17.488l-12.428,12.429,11.314,11.314,16.064-16.063c7.949,3.936,15.652,7.477,22.957,10.414l-10.335,10.335,11.314,11.314L365.5,269.815a90.83,90.83,0,0,0,9.185,2.077c12.128,2.021,25.157,3.043,37.756,4.03,38.329,3,62.919,6.216,66.959,22.866C464.046,304.559,418.265,320,368,320Z"/></svg>
