<svg id="Layer_1" enable-background="new 0 0 512.002 512.002" height="512" viewBox="0 0 512.002 512.002" width="512" xmlns="http://www.w3.org/2000/svg"><g><g><path d="m502.002 369.778c-6.725 0-9.906-2.252-14.722-5.662-5.877-4.161-13.191-9.338-26.278-9.338-1.876 0-3.621.117-5.273.311 6.437-8.416 10.272-18.922 10.272-30.311 0-5.523-4.478-10-10-10h-109.829l-2.812-99.71c5.195-3.129 9.313-7.754 11.836-13.408 3.259-7.302 3.479-15.435.621-22.902-2.616-6.835-7.531-12.356-13.925-15.735l-1.189-42.163 6.784-3.957c14.292-8.277 19.185-26.639 10.907-40.931-4.01-6.923-10.476-11.871-18.207-13.931-7.728-2.059-15.8-.986-22.751 3.04l-7.123 4.155c.026-.668.04-1.337.04-2.009 0-27.57-22.43-50-50-50s-50 22.43-50 50c0 12.215 4.335 23.578 11.845 32.398-8.166 2.976-14.807 9.435-17.891 17.692l-27.584 70.563c-.751 1.921-1.303 3.92-1.645 5.946l-10.607 47.382-30.999 71.715c-.263.61-.486 1.232-.707 1.854h-56.764c-16.542 0-30 13.458-30 30 0 3.552.624 6.959 1.762 10.124-11.083.772-17.669 5.412-23.04 9.215-4.816 3.409-7.998 5.662-14.723 5.662-5.522 0-10 4.477-10 10v104.997c0 5.523 4.478 10 10 10h492.002c5.522 0 10-4.477 10-10v-104.997c0-5.523-4.478-10-10-10zm-231.515-218.879 3.062-.595 5.718 5.717c.857.858 1.865 1.553 2.972 2.05l40.013 17.977.622 22.061-50.78-22.814c-.253-.114-.51-.216-.771-.309-1.405-.496-2.659-1.289-3.728-2.357l-4.759-4.759c2.545-5.652 5.09-11.303 7.651-16.971zm-29.553 65.901 10.969 12.104-14.689 13.312-5.073-5.598c2.926-6.61 5.856-13.216 8.793-19.818zm-17.635 39.846 3.495 3.857 3.93 54.276h-32.85c8.486-19.539 16.948-38.89 25.425-58.133zm27.477 58.132-3.932-54.299 18.136-16.435c.568 1.258.791 2.452.856 3.381.025.362.071.722.136 1.076l4.8 66.277zm40.047 0-4.981-68.779c-.03-.427-.09-.85-.175-1.265-.707-6.175-3.357-12.055-7.545-16.682l-28.286-31.213c1.411-3.156 2.829-6.316 4.244-9.474 2.95 2.789 6.358 4.92 10.157 6.325l51.422 23.103c2.523 1.126 5.145 1.883 7.805 2.282l2.699 95.702h-35.34zm30.802-160.937-21.35-9.592c.901-.411 1.791-.854 2.66-1.357l18.083-10.549zm5.862-71.469c2.303-1.333 4.985-1.688 7.551-1.005 2.569.685 4.718 2.329 6.05 4.628 2.75 4.749 1.124 10.85-3.651 13.616l-44.551 25.989c-.99.573-2.04.969-3.148 1.181l-4.97.966-3.803-19.562 1.743-.339c1.103-.214 2.161-.613 3.131-1.179zm-67.133-45.145c16.542 0 30 13.458 30 30 0 5.956-1.749 11.656-5.03 16.587l-8.098 4.724-29.74 5.783c-10.472-4.95-17.132-15.366-17.132-27.094 0-16.542 13.458-30 30-30zm-65.571 160.036c.111-.714.303-1.422.568-2.103l27.613-70.64c.023-.058.045-.116.066-.175 1.226-3.315 4.023-5.69 7.515-6.358l30.786-5.986 3.803 19.562-3.538.688c-3.181.619-5.865 2.741-7.201 5.693-17.617 38.929-34.776 77.386-51.875 116.258l-18.657-8.064 10.798-48.231c.048-.212.089-.427.122-.644zm-18.631 67.332 18.328 7.922c-6.13 13.996-12.262 28.078-18.411 42.261h-21.609zm-100.151 70.183h368.286c-4.127 11.641-15.249 20-28.286 20h-340c-5.514 0-10-4.486-10-10s4.486-10 10-10zm-56.001 139.997v-25.922c7.71-1.676 12.859-5.328 17.212-8.422 4.786-3.403 7.949-5.65 14.622-5.65 6.674 0 9.836 2.248 14.623 5.65 5.86 4.166 13.153 9.35 26.211 9.35 13.057 0 20.35-5.184 26.21-9.349 4.787-3.403 7.949-5.651 14.623-5.651s9.836 2.248 14.623 5.651c5.86 4.165 13.153 9.349 26.21 9.349s20.351-5.184 26.211-9.349c4.002-2.844 6.893-4.898 11.664-5.48 5.482-.668 9.384-5.655 8.716-11.137-.669-5.481-5.648-9.384-11.138-8.715-9.803 1.196-15.916 5.54-20.828 9.031-4.788 3.403-7.951 5.651-14.625 5.651-6.673 0-9.836-2.248-14.622-5.65-5.86-4.166-13.153-9.35-26.211-9.35s-20.351 5.184-26.211 9.35c-4.786 3.403-7.949 5.65-14.622 5.65-6.674 0-9.836-2.248-14.623-5.65-5.86-4.166-13.153-9.35-26.211-9.35-13.057 0-20.35 5.184-26.21 9.349-2.037 1.448-3.78 2.683-5.624 3.629v-39.127c7.193-1.76 12.099-5.233 16.278-8.192 4.816-3.41 7.997-5.662 14.722-5.662s9.906 2.252 14.723 5.662c5.877 4.161 13.19 9.338 26.278 9.338 13.087 0 20.4-5.178 26.277-9.338 4.816-3.409 7.998-5.662 14.723-5.662s9.906 2.252 14.722 5.662c5.877 4.161 13.191 9.338 26.278 9.338s20.401-5.178 26.278-9.338c4.815-3.409 7.997-5.662 14.722-5.662s9.906 2.252 14.722 5.662c5.877 4.161 13.191 9.338 26.278 9.338s20.401-5.178 26.278-9.338c4.815-3.409 7.997-5.662 14.722-5.662s9.906 2.252 14.723 5.662c5.877 4.161 13.19 9.338 26.277 9.338 13.088 0 20.401-5.178 26.278-9.338 4.816-3.409 7.998-5.662 14.723-5.662s9.905 2.252 14.722 5.662c5.877 4.161 13.19 9.338 26.278 9.338 13.087 0 20.401-5.178 26.278-9.338 4.815-3.409 7.997-5.662 14.722-5.662s9.906 2.252 14.722 5.662c4.18 2.959 9.086 6.432 16.278 8.192v39.127c-1.844-.945-3.587-2.181-5.624-3.629-5.86-4.165-13.153-9.349-26.21-9.349-13.058 0-20.351 5.184-26.211 9.35-4.787 3.402-7.949 5.65-14.623 5.65-6.673 0-9.836-2.248-14.622-5.65-5.86-4.166-13.153-9.35-26.211-9.35s-20.351 5.184-26.21 9.35c-4.787 3.402-7.949 5.65-14.623 5.65s-9.837-2.248-14.625-5.65c-4.913-3.492-11.027-7.838-20.836-9.032-5.491-.668-10.468 3.236-11.136 8.718-.667 5.482 3.235 10.468 8.718 11.135 4.774.581 7.666 2.636 11.668 5.48 5.86 4.165 13.153 9.349 26.211 9.349s20.351-5.184 26.21-9.35c4.787-3.402 7.949-5.65 14.623-5.65s9.836 2.248 14.623 5.651c5.86 4.165 13.153 9.349 26.21 9.349 13.058 0 20.351-5.184 26.211-9.35 4.787-3.402 7.949-5.65 14.623-5.65 6.673 0 9.836 2.248 14.622 5.65 4.353 3.094 9.502 6.746 17.212 8.422v25.922h-472.002z"/><path d="m256.001 429.78h-.007c-5.522 0-9.996 4.477-9.996 10s4.48 10 10.003 10 10-4.477 10-10-4.478-10-10-10z"/></g></g></svg>