<svg id="Capa_1" enable-background="new 0 0 512.345 512.345" height="512" viewBox="0 0 512.345 512.345" width="512" xmlns="http://www.w3.org/2000/svg"><g><path d="m491.357 112.037h-24.033v-19.971c0-15.833-12.881-28.714-28.713-28.714h-22.905c-15.833 0-28.713 12.881-28.713 28.714v82.212h-38.383v-22.072c0-16.019-13.032-29.05-29.05-29.05-6.294 0-12.12 2.019-16.88 5.434-4.68-9.78-14.673-16.553-26.22-16.553-10.916 0-20.443 6.052-25.405 14.977-4.904-3.781-11.038-6.042-17.696-6.042-10.104 0-19.011 5.191-24.216 13.041-5.083-4.36-11.679-7.002-18.884-7.002-16.019 0-29.05 13.031-29.05 29.05v18.219h-35.854v-21.172c0-4.143-3.358-7.5-7.5-7.5s-7.5 3.357-7.5 7.5v174.232c0 7.562-6.152 13.713-13.713 13.713h-22.908c-7.562 0-13.713-6.151-13.713-13.713v-235.274c0-7.562 6.152-13.714 13.713-13.714h22.905c7.562 0 13.713 6.152 13.713 13.714v29.078c0 4.143 3.358 7.5 7.5 7.5s7.5-3.357 7.5-7.5v-29.078c0-15.833-12.881-28.714-28.713-28.714h-22.905c-15.833 0-28.713 12.881-28.713 28.714v19.971h-24.033c-11.573 0-20.988 9.415-20.988 20.987v153.356c0 11.573 9.415 20.988 20.988 20.988h24.033v19.971c0 15.832 12.881 28.713 28.713 28.713h22.905c15.833 0 28.713-12.881 28.713-28.713v-82.212h25.702v13.695c0 7.038 2.462 13.908 6.934 19.345l23.292 28.318v135.007c0 4.143 3.358 7.5 7.5 7.5s7.5-3.357 7.5-7.5v-137.695c0-1.738-.604-3.422-1.708-4.765l-25-30.395c-2.269-2.758-3.519-6.244-3.519-9.815v-13.695l141.838.867c4.142 0 7.5-3.357 7.5-7.5s-3.358-7.5-7.5-7.5h-34.125c-7.04 0-12.768-5.728-12.768-12.767 0-7.04 5.728-12.768 12.768-12.768h64.487c4.431 0 8.036 3.604 8.036 8.035v45.327c0 3.571-1.25 7.058-3.519 9.815l-25 30.395c-1.104 1.343-1.708 3.026-1.708 4.765v19.781c0 4.143 3.358 7.5 7.5 7.5s7.5-3.357 7.5-7.5v-17.093l23.292-28.318c4.471-5.437 6.934-12.307 6.934-19.345v-13.695h25.702v82.212c0 15.832 12.881 28.713 28.713 28.713h22.905c15.833 0 28.713-12.881 28.713-28.713v-19.971h24.033c11.573 0 20.988-9.415 20.988-20.988v-153.355c.003-11.572-9.412-20.987-20.985-20.987zm-470.369 180.331c-3.302 0-5.988-2.687-5.988-5.988v-153.356c0-3.302 2.686-5.987 5.988-5.987h24.033v165.331zm298.571-154.212c7.748 0 14.05 6.303 14.05 14.05v27.923c0 3.96-1.68 7.686-4.555 10.331h-18.991c-2.875-2.645-4.555-6.371-4.555-10.331v-27.923c0-7.747 6.303-14.05 14.051-14.05zm-57.151 2.931c0-7.747 6.303-14.05 14.05-14.05s14.05 6.303 14.05 14.05v39.042c0 3.96-1.68 7.686-4.555 10.331h-12.186c-2.07 0-4.086.235-6.028.667-3.339-2.636-5.332-6.648-5.332-10.998v-39.042zm-43.101 8.934c0-7.747 6.303-14.05 14.05-14.05s14.051 6.303 14.051 14.05v30.107c0 7.748-6.303 14.051-14.051 14.051s-14.05-6.303-14.05-14.051zm-43.101 6.039c0-7.747 6.303-14.05 14.05-14.05s14.05 6.303 14.05 14.05v24.069c0 7.748-6.303 14.051-14.05 14.051s-14.05-6.303-14.05-14.051zm-50.853 33.218h37.338c3.843 11.548 14.744 19.901 27.566 19.901 8.542 0 16.234-3.708 21.554-9.596 5.32 5.887 13.006 9.596 21.547 9.596 6.187 0 11.914-1.963 16.63-5.273-2.529 4.184-3.987 9.085-3.987 14.321 0 4.256.965 8.291 2.684 11.899h-123.332zm235.938 40.849v-16.632c0-9.936-6.324-18.422-15.158-21.647.37-.839.699-1.697.989-2.57h39.871v40.849zm136.054 56.253c0 3.302-2.686 5.988-5.988 5.988h-24.033v-21.674c0-4.143-3.358-7.5-7.5-7.5s-7.5 3.357-7.5 7.5v56.645c0 7.562-6.152 13.713-13.713 13.713h-22.905c-7.562 0-13.713-6.151-13.713-13.713v-235.273c0-7.562 6.152-13.714 13.713-13.714h22.905c7.562 0 13.713 6.152 13.713 13.714v146.665c0 4.143 3.358 7.5 7.5 7.5s7.5-3.357 7.5-7.5v-111.694h24.033c3.302 0 5.988 2.686 5.988 5.987z"/><path d="m323.564 348.04c-4.142 0-7.5 3.357-7.5 7.5v85.951c0 4.143 3.358 7.5 7.5 7.5s7.5-3.357 7.5-7.5v-85.951c0-4.143-3.357-7.5-7.5-7.5z"/></g></svg>