<?xml version="1.0"?>
<svg xmlns="http://www.w3.org/2000/svg" id="outline" viewBox="0 0 512 512" width="512" height="512"><path d="M490.52979,288.41016l-24-8a8.00672,8.00672,0,0,0-5.05958,0l-21.19238,7.064L232,202.62109V144a56.001,56.001,0,0,0-56-56H56a8.00008,8.00008,0,0,0-8,8v32a8.00071,8.00071,0,0,0,5.47021,7.58984L72,141.76562V152a7.99735,7.99735,0,0,0,5.413,7.56421q-1.5855,1.30151-3.0697,2.77856a41.62813,41.62813,0,0,0-11.63672,22.32178A24.98265,24.98265,0,0,0,32,208.9707v26.18457A86.99777,86.99777,0,0,1,17.34375,283.5625,7.99974,7.99974,0,0,0,24,296a64.07949,64.07949,0,0,0,63.918-60.76831l8.48437,8.48413a41.80831,41.80831,0,0,0,14.85987,9.59937l-9.16944,14.65258A39.95273,39.95273,0,0,0,96,289.1875v51.499l-24,24L61.65674,354.34277A8.00035,8.00035,0,0,0,56,352H48a8.00008,8.00008,0,0,0-8,8v8H24a8.00008,8.00008,0,0,0-8,8v40a8.00008,8.00008,0,0,0,8,8H72a8.00209,8.00209,0,0,0,3.88525-1.00684l57.78516-32.10254a47.74468,47.74468,0,0,0,22.66455-28.167l16.88672-56.28808L402.793,390.61133l14.55078,21.82617a7.99788,7.99788,0,0,0,4.12646,3.15234l24,8a7.99393,7.99393,0,0,0,10.11915-5.05957l40-120A8.00052,8.00052,0,0,0,490.52979,288.41016ZM283.27271,329.74609l12.12451-29.09887L413.3064,345.99683l-10.084,27.731Zm-2.81507-34.845-12.22156,29.33155L216.1062,305.11841l29.04138-79.86377,54.994,22.405-13.52783,32.46679-19.74219-7.59326-5.74316,14.9336Zm21.09583-9.02881L314.96,253.69678l114.88953,46.80664-11.07422,30.45434ZM64,122.23438V104H176a40,40,0,0,1,40,40v51.05591l-45.26685-22.63355,12.42212-24.84424a8.00086,8.00086,0,0,0-6.16308-11.5166l-64-8a7.99651,7.99651,0,0,0-6.64893,2.28125L92.686,144H88v-8a8.00071,8.00071,0,0,0-5.47021-7.58984Zm16.88965,81.562a25.9512,25.9512,0,0,1,34.90674-34.90674Zm28.04455-53.41651,5.95594-5.95605,48.898,6.1123-13.9795,27.95825-16.15185-16.15161A41.72258,41.72258,0,0,0,108.9342,150.37988ZM38.86377,277.64551A102.93061,102.93061,0,0,0,48,235.15527V208.9707a8.97038,8.97038,0,0,1,15.314-6.34277l.14295.14307A41.5425,41.5425,0,0,0,72,219.09961V232A48.08692,48.08692,0,0,1,38.86377,277.64551ZM91.314,216,128,179.31348l16.40234,16.40234a25.94094,25.94094,0,1,1-36.68652,36.68555Zm49.69581,142.126A31.83017,31.83017,0,0,1,125.8999,376.9043L69.92725,408H32V384H48a8.00008,8.00008,0,0,0,8-8v-4.68652l10.34326,10.34375a8.00182,8.00182,0,0,0,11.31348,0l32-32A8.00076,8.00076,0,0,0,112,344V289.1875a23.97155,23.97155,0,0,1,3.65576-12.73145l.53125-.84912,42.32324,24.18482Zm30.37915-69.40381-46.70679-26.6897,3.82336-6.10937a41.9428,41.9428,0,0,0,32.78821-64.62183l2.28418-4.56836,56.84448,28.42236.00977-.01953c.1831.09131.35766.19531.54932.27344l9.33715,3.8042-29.2351,80.39673ZM442.94043,405.88086l-13.80664-4.60254-12.23242-18.34863,11.34131-31.18823,29.02319,11.16284ZM462.33081,347.71l-28.61926-11.00757,12.48572-34.3352L464,296.43262l13.88086,4.627Z"/></svg>
