<svg id="Outline" enable-background="new 0 0 512 512" height="512" viewBox="0 0 512 512" width="512" xmlns="http://www.w3.org/2000/svg"><path d="m488 472h-114l18.5-2.9c25.5-4 43-28 38.9-53.6-3.6-22.8-23.2-39.5-46.3-39.5-.3 0-.5 0-.8 0l-60 5.9c-4.3-10.8-12.3-32.7-12.3-49.9 0-18.5 9.3-42.7 13.4-52.4 15.7-2 28.8-12.9 33.8-27.9l29.2-87.7c3-8.9 0-18.7-7.5-24.4l-86.2-72.5-15.3-38.1c-1.2-3-4.2-5-7.4-5h-32c-3.3 0-6.2 2-7.4 5l-15.3 38.1-86.2 72.5c-7.4 5.7-10.4 15.5-7.5 24.4l29.2 87.7c5 15 18.1 25.8 33.8 27.9 4.1 9.6 13.4 33.8 13.4 52.4 0 17.2-8 39.1-12.4 50l-60-5.9c-.3 0-.5 0-.8 0-25.8-.1-46.8 20.9-46.8 46.7 0 23 16.8 42.7 39.5 46.3l18.5 2.9h-114c-4.4 0-8 3.6-8 8s3.6 8 8 8h464c4.4 0 8-3.6 8-8s-3.6-8-8-8zm-288-201.7v-38.3h16.8c4.4 21.6 25.6 35.6 47.2 31.2 15.7-3.2 28-15.5 31.2-31.2h16.8v38.3c-3.7 8.4-6.9 17-9.6 25.7h-92.8c-2.7-8.8-5.9-17.3-9.6-25.7zm116.9-54.3h-20.9c5.2-6.9 8-15.3 8-24v-24c0-14.4-6.6-27-16.6-34.1.6-3.2.7-6.4.3-9.6l46.9 38.4zm-76.9-88c0-8.8 7.2-16 16-16s16 7.2 16 16v.1c-.9-.1-1.8-.1-2.7-.1h-26.7c-.9 0-1.8.1-2.7.1.1 0 .1-.1.1-.1zm2.7 16h26.7c10.3 0 18.7 10.8 18.7 24v4.2l-29-11.6c-1.9-.8-4-.8-5.9 0l-29 11.6v-4.2c-.2-13.2 8.2-24 18.5-24zm13.3 32.6 32 12.8v2.6c0 13.2-10.8 24-24 24h-16c-13.2 0-24-10.8-24-24v-2.6zm-8 55.4h16c5.3 0 10.6-1.1 15.5-3.1-2.7 13-15.4 21.3-28.4 18.6-9.4-1.9-16.7-9.3-18.6-18.6 4.9 2 10.2 3.1 15.5 3.1zm-23.4-98.1c-9.9 7-16.6 19.7-16.6 34.1v24c0 8.7 2.8 17.1 8 24h-20.9l-17.8-53.3 46.9-38.4c-.4 3.2-.2 6.5.4 9.6zm56-58.9c.5 1.2 1.3 2.3 2.3 3.2l87.9 73.9c.1.1.2.2.3.3 2.1 1.5 2.9 4.2 2.1 6.7l-29.2 87.6c-2.5 7.6-8.4 13.5-16 16v-29.4l21.8-65.5c2.1-6.3.1-13.2-5-17.4l-80.8-66.2v-44.2h2.6zm-96.6 187.7c-7.6-2.5-13.5-8.4-16-16l-29.2-87.7c-.8-2.5 0-5.2 2.1-6.7.1-.1.2-.2.3-.3l87.9-73.9c1-.8 1.8-1.9 2.3-3.2l14-35h2.6v44.2l-80.8 66.1c-5.1 4.2-7.1 11.1-5 17.4l21.8 65.5zm32 69.3c-.1-6.7-.9-13.4-2.3-20h84.6c-1.4 6.6-2.2 13.3-2.3 20 0 17.8 6.9 38.8 11.8 51.6l-4.2.4h-95.2l-4.2-.4c4.9-12.8 11.8-33.8 11.8-51.6zm-120 90.8c0-16.9 13.6-30.6 30.5-30.8l80.8 8h.8 96 .8l80.8-8c17 .2 30.7 14.2 30.5 31.2-.2 15-11.2 27.7-26 30.1l-56.3 8.9-7.1-10.6c-1.1-1.6-2.6-2.7-4.5-3.3l-19-5.4 44-19.6c4-1.8 5.9-6.5 4.1-10.6s-6.5-5.9-10.6-4.1l-61.6 27.4-13-3.7c-1.5-.4-3.2-.4-4.7.1l-21.1 7-69.2-30.7c-4-1.8-8.8 0-10.6 4.1s0 8.8 4.1 10.6l67.2 29.9v17.4l-110-17.4c-14.9-2.3-26-15.3-25.9-30.5zm152 49.2v-18.2l16.2-5.4 50.8 14.5 6.1 9.1z"/></svg>